#!OML:ASF X:\für Bonn\!DataBase\2005_08_10_Bjorn_Final\c3d\bjorn.ASF
:FULLY-SPECIFIED
:DEGREES
171
root 0.693988 20.4435 0.144419 -177.058 24.7057 183.611
lowerback -7.28677 3.98695 3.47293
upperback 1.79544 5.1745 -2.51066
thorax 6.51779 2.74922 -3.89737
lowerneck -4.78408 3.69611 10.5905
upperneck 11.9051 4.71419 -3.0551
head 4.68726 2.73692 -2.38668
rclavicle -4.79071e-014 1.03368e-014
rhumerus -272.556 17.9505 253.697
rradius 14.0213
rwrist 47.4514
rhand -30.313 16.0203
rfingers 7.12502
rthumb -3.61975 -13.9287
lclavicle -4.79071e-014 1.03368e-014
lhumerus 66.5761 -16.3266 99.9642
lradius 44.2184
lwrist 44.2205
lhand -42.2923 0.222852
lfingers 7.12502
lthumb -15.1767 29.6463
rfemur -1.73152 -0.0353899 8.01405
rtibia 31.0825
rfoot 18.433 14.087
rtoes -19.1786
lfemur -16.6792 3.27941 -8.58296
ltibia 27.6164
lfoot 15.2463 -6.57168
ltoes -12.0794
172
root 0.678229 20.4577 0.120785 -176.799 24.7385 183.587
lowerback -7.31064 3.97376 3.23588
upperback 1.72371 5.19097 -2.6461
thorax 6.44786 2.75097 -3.90568
lowerneck -4.9856 3.63513 10.8866
upperneck 12.2734 4.60991 -3.13262
head 4.83685 2.70846 -2.45909
rclavicle -6.04802e-014 1.11319e-014
rhumerus -272.499 17.9184 250.555
rradius 12.6927
rwrist 51.0344
rhand -29.1988 15.1024
rfingers 7.12502
rthumb -2.54374 -14.8622
lclavicle -6.04802e-014 1.11319e-014
lhumerus 67.3236 -16.0958 100.165
lradius 42.4683
lwrist 44.5027
lhand -42.9638 0.693133
lfingers 7.12502
lthumb -15.8235 30.0665
rfemur -1.93897 0.0422784 7.91472
rtibia 30.9965
rfoot 18.9989 13.6164
rtoes -18.8104
lfemur -16.7573 3.16544 -8.61019
ltibia 27.5124
lfoot 15.0952 -6.97454
ltoes -12.5439
173
root 0.661328 20.4596 0.0957056 -176.598 24.7435 183.569
lowerback -7.31751 3.96133 3.03164
upperback 1.68055 5.20578 -2.77329
thorax 6.40077 2.75414 -3.92395
lowerneck -5.15747 3.55851 11.1481
upperneck 12.5758 4.48729 -3.21896
head 4.9589 2.66698 -2.5315
rclavicle -8.69683e-014 -7.95139e-015
rhumerus -272.745 17.8891 247.033
rradius 11.7568
rwrist 54.982
rhand -28.3554 14.5127
rfingers 7.12502
rthumb -1.72919 -15.46
lclavicle -8.69683e-014 -7.95139e-015
lhumerus 67.9284 -15.9562 100.162
lradius 41.1214
lwrist 44.756
lhand -43.6876 0.838794
lfingers 7.12502
lthumb -16.5205 30.1555
rfemur -2.04892 0.0183564 7.78828
rtibia 30.8859
rfoot 19.531 13.3475
rtoes -18.5585
lfemur -16.7775 2.92157 -8.62898
ltibia 27.4422
lfoot 14.7301 -7.38663
ltoes -12.9189
174
root 0.644641 20.451 0.0674811 -176.473 24.7781 183.522
lowerback -7.32602 3.94409 2.81008
upperback 1.67784 5.21609 -2.88903
thorax 6.39436 2.75564 -3.91963
lowerneck -5.51168 3.51764 11.3975
upperneck 13.0356 4.39393 -3.30291
head 5.16245 2.64306 -2.59623
rclavicle -6.13251e-014 5.40694e-014
rhumerus -273.095 17.8963 243.57
rradius 11.0783
rwrist 58.9225
rhand -27.7766 13.9987
rfingers 7.12502
rthumb -1.17011 -15.9778
lclavicle -6.13251e-014 5.40694e-014
lhumerus 68.425 -15.8474 99.8958
lradius 40.204
lwrist 44.8437
lhand -44.4247 1.03806
lfingers 7.12502
lthumb -17.23 30.2942
rfemur -2.08227 0.0223227 7.60572
rtibia 30.7726
rfoot 19.9464 13.3171
rtoes -18.457
lfemur -16.6943 2.62523 -8.68778
ltibia 27.3866
lfoot 14.1151 -7.89784
ltoes -13.8517
175
root 0.626872 20.4309 0.0373595 -176.497 24.7919 183.403
lowerback -7.25569 3.91907 2.54868
upperback 1.72396 5.22438 -3.01664
thorax 6.39202 2.75672 -3.90919
lowerneck -5.79666 3.47958 11.6417
upperneck 13.3889 4.30712 -3.38683
head 5.32189 2.619 -2.66202
rclavicle -5.96354e-016 2.38542e-014
rhumerus -273.425 17.8674 240.304
rradius 10.5513
rwrist 62.7912
rhand -27.3589 13.4542
rfingers 7.12502
rthumb -0.766714 -16.5242
lclavicle -5.96354e-016 2.38542e-014
lhumerus 68.8232 -15.8234 99.349
lradius 39.7035
lwrist 44.7565
lhand -45.2003 1.45667
lfingers 7.12502
lthumb -17.9763 30.6459
rfemur -1.96478 0.0116371 7.32465
rtibia 30.6773
rfoot 20.2141 13.5279
rtoes -18.7677
lfemur -16.4743 2.30046 -8.82364
ltibia 27.3313
lfoot 13.445 -8.27331
ltoes -13.842
176
root 0.609189 20.4013 0.00577543 -176.46 24.8246 183.406
lowerback -7.25863 3.91025 2.4045
upperback 1.79662 5.23835 -3.10229
thorax 6.46716 2.76434 -3.91395
lowerneck -6.09079 3.44534 11.8244
upperneck 13.6815 4.21923 -3.43155
head 5.46193 2.59086 -2.70633
rclavicle -6.67916e-014 5.725e-014
rhumerus -273.795 17.8754 236.967
rradius 10.1413
rwrist 66.856
rhand -27.1416 12.9767
rfingers 7.12502
rthumb -0.556854 -17.0023
lclavicle -6.67916e-014 5.725e-014
lhumerus 69.1909 -15.8505 98.7377
lradius 39.4131
lwrist 44.3717
lhand -45.8903 2.11721
lfingers 7.12502
lthumb -18.6401 31.2441
rfemur -1.86602 0.0543109 7.16589
rtibia 30.6036
rfoot 20.3802 13.9153
rtoes -19.3445
lfemur -16.2416 2.00614 -8.83826
ltibia 27.2761
lfoot 12.752 -8.39315
ltoes -12.8018
